<svg fill="#000000" viewBox="3.5 3.5 29 29" version="1.1" preserveAspectRatio="xMidYMid meet" xmlns="http://www.w3.org/2000/svg" xmlns:xlink="http://www.w3.org/1999/xlink" stroke="#000000" stroke-width="0.00036"><g id="SVGRepo_bgCarrier" stroke-width="0"></g><g id="SVGRepo_tracerCarrier" stroke-linecap="round" stroke-linejoin="round"></g><g id="SVGRepo_iconCarrier"> <title>grid-view-line</title> <path class="clr-i-outline clr-i-outline-path-1" d="M14,4H6A2,2,0,0,0,4,6v8a2,2,0,0,0,2,2h8a2,2,0,0,0,2-2V6A2,2,0,0,0,14,4ZM6,14V6h8v8Z"></path><path class="clr-i-outline clr-i-outline-path-2" d="M30,4H22a2,2,0,0,0-2,2v8a2,2,0,0,0,2,2h8a2,2,0,0,0,2-2V6A2,2,0,0,0,30,4ZM22,14V6h8v8Z"></path><path class="clr-i-outline clr-i-outline-path-3" d="M14,20H6a2,2,0,0,0-2,2v8a2,2,0,0,0,2,2h8a2,2,0,0,0,2-2V22A2,2,0,0,0,14,20ZM6,30V22h8v8Z"></path><path class="clr-i-outline clr-i-outline-path-4" d="M30,20H22a2,2,0,0,0-2,2v8a2,2,0,0,0,2,2h8a2,2,0,0,0,2-2V22A2,2,0,0,0,30,20ZM22,30V22h8v8Z"></path> <rect x="0" y="0" width="31" height="31" fill-opacity="0"></rect> </g></svg>