<svg class="svg-icon" style="vertical-align: middle;fill: currentColor;overflow: hidden;" viewBox="0 0 1024 1024" version="1.1" xmlns="http://www.w3.org/2000/svg"><path d="M 843.283 870.1156 c -8.4385 -140.5156 -104.2963 -257.4222 -233.9081 -297.1496 C 687.8815 536.2726 742.4 456.5333 742.4 364.0889 c 0 -127.2415 -103.1585 -230.4 -230.4 -230.4 S 281.6 236.8474 281.6 364.0889 c 0 92.4444 54.5185 172.1837 133.12 208.877 c -129.6119 39.7274 -225.4696 156.6341 -233.9081 297.1496 c -6.8119 50.8845 -7.8119 72.8845 19.1881 49.8845 l -3.7749 16.6889 c 13 -2 18.2993 -7.7748 18.963 -17.7304 C 227.7452 718.5067 355.6504 596.3852 512 596.3852 s 284.2548 122.1215 293.357 276.1956 c 6.643 59.4192 -5.357 45.4192 20.643 60.4192 C 835 915 848 956 845 905 z M 319.5259 364.0889 c 0 -106.2874 86.1867 -192.4741 192.4741 -192.4741 s 192.4741 86.1867 192.4741 192.4741 c 0 106.2874 -86.1867 192.4741 -192.4741 192.4741 S 319.5259 470.3763 319.5259 364.0889 z"  /></svg>